<?xml version="1.0" encoding="iso-8859-1"?>
<!-- Generator: Adobe Illustrator 19.0.0, SVG Export Plug-In . SVG Version: 6.00 Build 0)  -->
<svg version="1.1" id="Capa_1" xmlns="http://www.w3.org/2000/svg" xmlns:xlink="http://www.w3.org/1999/xlink" x="0px" y="0px"
	 viewBox="0 0 490.996 490.996" style="enable-background:new 0 0 490.996 490.996;" xml:space="preserve">
<g>
	<path d="M85.8,225.398c11.1,0,20.1,9,20.1,20.1c0,11.1-9,20.1-20.1,20.1s-20.1-9-20.1-20.1C65.7,234.398,74.7,225.398,85.8,225.398
		z M362.6,228.798h20.5v-68.7c0-18.3-14.9-33.2-33.2-33.2H33.2c-18.3,0-33.2,14.9-33.2,33.2v170.8c0,18.3,14.9,33.2,33.2,33.2h239.2
		c-0.8-2.4-1.2-5-1.2-7.7v-20.6H67.3c0.4-2,0.6-4.1,0.6-6.2c0-18.6-15-33.6-33.6-33.6c-2,0-4,0.2-5.9,0.5v-102
		c1.9,0.3,3.9,0.5,5.9,0.5c18.6,0,33.6-15,33.6-33.6c0-2.1-0.2-4.2-0.6-6.2h246.5c-0.7,2.6-1,5.4-1,8.2c0,18.6,15,33.6,33.6,33.6
		c2.9,0,5.7-0.4,8.3-1v34.1C357.2,229.298,359.9,228.798,362.6,228.798z M396.8,246.298h-34.2c-4.3,0-7.7,3.5-7.7,7.7v102.2
		c0,4.3,3.5,7.7,7.7,7.7h34.2c4.3,0,7.7-3.5,7.7-7.7v-102.1C404.5,249.798,401.1,246.298,396.8,246.298z M330.6,281.998h-34.1
		c-4.3,0-7.7,3.5-7.7,7.7v66.6c0,4.3,3.5,7.7,7.7,7.7h34.2c4.3,0,7.7-3.5,7.7-7.7v-66.6C338.4,285.398,334.9,281.998,330.6,281.998z
		 M450.6,143.598c-2.3-3.3-7.2-3.3-9.5,0l-39.3,57.4c-2.6,3.8,0.1,9,4.8,9h14.5v146.3c0,4.3,3.5,7.7,7.7,7.7H463
		c4.3,0,7.7-3.5,7.7-7.7v-146.3h14.5c4.6,0,7.4-5.2,4.8-9L450.6,143.598z M191.6,172.798c40,0,72.5,32.5,72.5,72.7
		c0,40.1-32.4,72.7-72.5,72.7s-72.4-32.5-72.4-72.7C119.1,205.398,151.6,172.798,191.6,172.798z M190.1,204.998
		c-6.1,1-11.9,3.1-16.8,7c-6.2,4.9-10.3,11.3-12.7,18.8l-0.3,0.9h-8.8c-1.4,0-2.5,1.1-2.5,2.5v5.6c0,1.4,1.1,2.5,2.5,2.5h6.9
		c0,1.5,0,3,0,4.6h-6.9c-1.4,0-2.5,1.1-2.5,2.5v5.6c0,1.4,1.1,2.5,2.5,2.5h8.3c0.6,2,1.1,4.1,2,6.1c4.2,10.2,11.3,17.4,21.9,20.9
		c8.8,2.9,17.6,2.8,26.4,0.3c2.3-0.6,4.6-1.5,6.8-2.5c2.1-1,2.6-2.6,1.8-4.6c-0.9-2.3-1.9-4.5-2.9-6.7c-0.9-2-2.1-2.6-4.2-2.1
		c-2.7,0.6-5.4,1.5-8.2,2c-5.3,1.1-10.6,1.2-15.8-0.4c-6.5-2.1-10-6.8-12.2-13h17.8c1.4,0,2.5-1.1,2.5-2.5v-5.6
		c0-1.4-1.1-2.5-2.5-2.5h-19.5c0-1.6,0-3.1,0-4.6h19.5c1.4,0,2.5-1.1,2.5-2.5v-5.6c0-1.4-1.1-2.5-2.5-2.5h-17c0-0.1,0-0.1,0-0.2
		c2-4.7,5-8.4,9.9-10.3c5.7-2.3,11.5-2.2,17.4-1c2.8,0.6,5.5,1.4,8.3,2.1c2,0.5,3.2-0.1,4.1-2c1-2.2,1.9-4.4,2.8-6.6
		c0.9-2.1,0.4-3.6-1.6-4.7c-0.5-0.3-1-0.5-1.5-0.7C207.3,204.798,198.8,203.598,190.1,204.998z"/>
</g>
</svg>
